<svg width="21" height="21" viewBox="0 0 21 21" fill="none" xmlns="http://www.w3.org/2000/svg">
<path d="M9.46615 2.16663C7.81797 2.16663 6.20681 2.65537 4.8364 3.57105C3.46599 4.48672 2.39788 5.78821 1.76715 7.31093C1.13642 8.83365 0.971395 10.5092 1.29294 12.1257C1.61448 13.7422 2.40816 15.2271 3.57359 16.3925C4.73903 17.558 6.22389 18.3516 7.8404 18.6732C9.45691 18.9947 11.1325 18.8297 12.6552 18.199C14.1779 17.5682 15.4794 16.5001 16.3951 15.1297C17.3107 13.7593 17.7995 12.1481 17.7995 10.5C17.7995 9.40561 17.5839 8.32198 17.1651 7.31093C16.7464 6.29988 16.1325 5.38122 15.3587 4.6074C14.5849 3.83358 13.6662 3.21975 12.6552 2.80096C11.6441 2.38217 10.5605 2.16663 9.46615 2.16663V2.16663ZM9.46615 17.1666C8.14761 17.1666 6.85868 16.7756 5.76235 16.0431C4.66602 15.3105 3.81154 14.2694 3.30695 13.0512C2.80237 11.833 2.67035 10.4926 2.92758 9.19936C3.18482 7.90615 3.81975 6.71826 4.7521 5.78591C5.68445 4.85356 6.87234 4.21863 8.16555 3.96139C9.45875 3.70416 10.7992 3.83618 12.0174 4.34076C13.2355 4.84535 14.2767 5.69983 15.0093 6.79616C15.7418 7.89249 16.1328 9.18142 16.1328 10.5C16.1328 12.2681 15.4304 13.9638 14.1802 15.214C12.93 16.4642 11.2343 17.1666 9.46615 17.1666V17.1666ZM10.2995 10.4416V6.33329C10.2995 6.11228 10.2117 5.90032 10.0554 5.74404C9.89912 5.58776 9.68716 5.49996 9.46615 5.49996C9.24514 5.49996 9.03317 5.58776 8.87689 5.74404C8.72061 5.90032 8.63282 6.11228 8.63282 6.33329V10.5C8.63282 10.5 8.63282 10.5583 8.63282 10.5916C8.61231 10.761 8.64431 10.9327 8.72448 11.0833L9.97448 13.25C10.085 13.4422 10.2674 13.5827 10.4815 13.6406C10.6956 13.6984 10.9239 13.6688 11.1161 13.5583C11.3084 13.4478 11.4489 13.2654 11.5068 13.0513C11.5646 12.8372 11.535 12.6089 11.4245 12.4166L10.2995 10.4416Z" fill="white"/>
</svg>
