<svg width="40" height="40" viewBox="0 0 40 40" fill="none" xmlns="http://www.w3.org/2000/svg">
<g clip-path="url(#clip0_20_610)">
<path d="M27.3635 0C20.3957 0 14.727 5.66867 14.727 12.6365V16.3603H13.3937C13.1176 16.3603 12.8937 16.5842 12.8937 16.8603V23.1397C12.8937 23.4158 13.1176 23.6397 13.3937 23.6397H14.7271V27.3635C14.7271 28.5162 13.7893 29.454 12.6366 29.454C11.484 29.454 10.5463 28.5162 10.5463 27.3635V0.5C10.5463 0.223858 10.3224 0 10.0463 0H0.499999C0.223857 0 0 0.223858 0 0.5V27.3634C0 34.3313 5.66867 40 12.6366 40C19.6045 40 25.2731 34.3313 25.2731 27.3634V23.6397H26.6063C26.8825 23.6397 27.1063 23.4158 27.1063 23.1397V16.8603C27.1063 16.5842 26.8825 16.3603 26.6063 16.3603H25.2731V12.6365C25.2731 11.4838 26.2109 10.5461 27.3636 10.5461C28.5163 10.5461 29.4541 11.4839 29.4541 12.6365V39.5C29.4541 39.7761 29.6779 40 29.9541 40H39.5C39.7761 40 40 39.7761 40 39.5V12.6365C40 5.66867 34.3313 0 27.3635 0ZM12.6366 37.6562C6.96125 37.6562 2.34391 33.0389 2.34391 27.3635V2.34383H8.20227V27.3634C8.20227 29.8085 10.1915 31.7978 12.6366 31.7978C15.0816 31.7978 17.0709 29.8086 17.0709 27.3634V23.6396H22.9293V27.3634C22.9291 33.0389 18.3119 37.6562 12.6366 37.6562ZM24.7625 21.2959H15.2375V18.7041H24.7625V21.2959ZM37.6562 37.6562H31.7979V12.6365C31.7979 10.1915 29.8087 8.20219 27.3635 8.20219C24.9184 8.20219 22.9291 10.1914 22.9291 12.6365V16.3603H17.0708V12.6365C17.0708 6.96117 21.688 2.34391 27.3634 2.34391C33.0387 2.34391 37.656 6.96117 37.656 12.6365L37.6562 37.6562Z" fill="#CD4937"/>
<path d="M20 36C20 37.1046 16.6421 38 12.5 38C8.35786 38 5 37.1046 5 36C5 34.8955 8.35786 32.5 12.5 32.5C16.6421 32.5 20 34.8955 20 36Z" fill="#CD4937"/>
</g>
<defs>
<clipPath id="clip0_20_610">
<rect width="40" height="40" fill="white"/>
</clipPath>
</defs>
</svg>
