<svg width="40" height="38" viewBox="0 0 40 38" fill="none" xmlns="http://www.w3.org/2000/svg">
<path d="M0.499999 38C0.223856 38 0 37.7761 0 37.5V22.2759L0.238095 18.5831C0.952381 14.1358 2.57937 10.4033 5.11905 7.38558C7.65873 4.2884 10.9524 2.06479 15 0.714731L17.2358 0.155432C17.5514 0.0764847 17.8571 0.315169 17.8571 0.640485V6.21329C17.8571 6.4177 17.7327 6.60153 17.5429 6.67749L16.6667 7.02821C12.0635 9.25183 9.40476 13.1829 8.69048 18.8213L8.57143 20.7273H16.881C17.1571 20.7273 17.381 20.9511 17.381 21.2273V37.5C17.381 37.7761 17.1571 38 16.881 38H0.499999ZM22.6429 38C22.3667 38 22.1429 37.7761 22.1429 37.5V22.2759L22.381 18.5831C23.0952 14.2153 24.7222 10.4828 27.2619 7.38558C29.881 4.20899 33.1746 1.98537 37.1429 0.714731L39.3787 0.155432C39.6943 0.0764847 40 0.315169 40 0.640485V6.21329C40 6.4177 39.8756 6.60153 39.6858 6.67749L38.8095 7.02821C34.2064 9.093 31.5476 13.024 30.8333 18.8213L30.7143 20.7273H39.0238C39.3 20.7273 39.5238 20.9511 39.5238 21.2273V37.5C39.5238 37.7761 39.3 38 39.0238 38H22.6429Z" fill="#DCB641"/>
</svg>
