<svg width="40" height="40" viewBox="0 0 40 40" fill="none" xmlns="http://www.w3.org/2000/svg">
<g clip-path="url(#clip0_20_584)">
<path d="M31.3671 14.2003H24.8993C24.6068 13.8343 24.2744 13.5019 23.9083 13.2093V8.05171C23.9083 7.77557 23.6845 7.55171 23.4083 7.55171H21.1738V2.34407H26.7157C26.9919 2.34407 27.2157 2.12021 27.2157 1.84407V0.500244C27.2157 0.224101 26.9919 0.000244141 26.7157 0.000244141H13.288C13.0119 0.000244141 12.788 0.224102 12.788 0.500244V1.84407C12.788 2.12021 13.0119 2.34407 13.288 2.34407H18.83V7.55171H16.5954C16.3193 7.55171 16.0954 7.77557 16.0954 8.05171V13.2092C15.7294 13.5018 15.397 13.8342 15.1044 14.2002H7.03725V8.05171C7.03725 7.77557 6.81339 7.55171 6.53725 7.55171H0.501954C0.225811 7.55171 0.00195312 7.77557 0.00195312 8.05171V28.6617H7.03725V22.0132H15.1045C16.2542 23.4515 18.0217 24.3754 20.0019 24.3754C21.9821 24.3754 23.7496 23.4514 24.8993 22.0132H31.3671C31.8203 22.0132 32.1891 22.3818 32.1891 22.8351V26.4096C32.1891 26.6858 32.4129 26.9096 32.6891 26.9096H39.502C39.7781 26.9096 40.002 26.6858 40.002 26.4096V22.8351C40.0019 18.0738 36.1284 14.2003 31.3671 14.2003ZM4.69343 26.3178H2.34578V9.89554H4.69335L4.69343 26.3178ZM13.9303 19.6693H7.03725V16.5441H13.9303C13.8016 17.0438 13.7331 17.5674 13.7331 18.1067C13.7331 18.646 13.8016 19.1695 13.9303 19.6693ZM18.4393 9.89554H21.5645V12.0351C21.0648 11.9064 20.5412 11.8379 20.0019 11.8379C19.4626 11.8379 18.939 11.9064 18.4393 12.0351V9.89554ZM20.0019 22.0315C17.8378 22.0315 16.0771 20.2708 16.0771 18.1067C16.0771 15.9426 17.8378 14.1819 20.0019 14.1819C22.1661 14.1819 23.9268 15.9426 23.9268 18.1067C23.9268 20.2708 22.1661 22.0315 20.0019 22.0315ZM37.6581 24.5657H34.5329V22.835C34.5329 21.0894 33.1127 19.6693 31.3671 19.6693H26.0735C26.2021 19.1696 26.2707 18.646 26.2707 18.1067C26.2707 17.5674 26.2021 17.0438 26.0735 16.5441H31.3671C34.8359 16.5441 37.6581 19.3662 37.6581 22.835V24.5657Z" fill="#C84332"/>
<path d="M36.8378 30.3054L36.0939 29.6941L35.35 30.3054C35.2209 30.4115 32.1875 32.9402 32.1875 36.0935C32.1875 38.2475 33.9399 39.9999 36.0939 39.9999C38.2479 39.9999 40.0003 38.2475 40.0003 36.0935C40.0002 32.9402 36.9669 30.4115 36.8378 30.3054ZM36.0938 37.6563C35.2322 37.6563 34.5312 36.9553 34.5312 36.0937C34.5312 34.8888 35.3756 33.6533 36.0938 32.8489C36.812 33.6532 37.6564 34.8888 37.6564 36.0937C37.6564 36.9552 36.9554 37.6563 36.0938 37.6563Z" fill="#C84332"/>
</g>
<defs>
<clipPath id="clip0_20_584">
<rect width="40" height="40" fill="white"/>
</clipPath>
</defs>
</svg>
