<svg width="40" height="40" viewBox="0 0 40 40" fill="none" xmlns="http://www.w3.org/2000/svg">
<path d="M0.5 3.78418C0.223857 3.78418 0 4.00804 0 4.28418V35.7161C0 35.9923 0.223858 36.2161 0.5 36.2161H39.5C39.7761 36.2161 40 35.9923 40 35.7161V4.28418C40 4.00804 39.7761 3.78418 39.5 3.78418H0.5ZM7.77195 13.1886C8.32609 13.408 8.92914 13.53 9.56047 13.53C10.1918 13.53 10.7948 13.4081 11.3489 13.1886V18.1759L9.56047 17.4891L7.77195 18.1759V13.1886ZM12.0897 8.65715C12.0897 10.0518 10.9552 11.1863 9.56047 11.1863C8.16578 11.1863 7.03125 10.0517 7.03125 8.65715C7.03125 7.26246 8.16578 6.12793 9.56047 6.12793C10.9552 6.12793 12.0897 7.26246 12.0897 8.65715ZM37.6562 33.8723H2.34375V6.12793H5.39672C4.94695 6.86566 4.6875 7.7316 4.6875 8.65715C4.6875 9.60348 4.95953 10.487 5.4282 11.2354V20.859C5.4282 21.2098 5.77998 21.4515 6.10744 21.3258L9.56047 19.9998L13.0134 21.3258C13.3409 21.4515 13.6927 21.2098 13.6927 20.859V15.3928H26.9793C27.2554 15.3928 27.4793 15.1689 27.4793 14.8928V13.549C27.4793 13.2729 27.2554 13.049 26.9793 13.049H13.6927V11.2355C13.7777 11.0997 13.8562 10.9596 13.9278 10.8154H26.9793C27.2554 10.8154 27.4793 10.5916 27.4793 10.3154V8.97168C27.4793 8.69554 27.2554 8.47168 26.9793 8.47168H14.4288C14.3966 7.61613 14.1438 6.81613 13.7242 6.12793H37.6562V33.8723Z" fill="white"/>
<path d="M7.03125 27.6658C7.03125 27.3896 6.80739 27.1658 6.53125 27.1658H5.1875C4.91136 27.1658 4.6875 27.3896 4.6875 27.6658V31.0285C4.6875 31.3046 4.91136 31.5285 5.1875 31.5285H8.55031C8.82645 31.5285 9.05031 31.3046 9.05031 31.0285V29.6848C9.05031 29.4086 8.82645 29.1848 8.55031 29.1848H7.03125V27.6658Z" fill="white"/>
<path d="M35.312 27.6658C35.312 27.3896 35.0882 27.1658 34.812 27.1658H33.4683C33.1921 27.1658 32.9683 27.3896 32.9683 27.6658V29.1848H31.4492C31.1731 29.1848 30.9492 29.4086 30.9492 29.6848V31.0285C30.9492 31.3046 31.1731 31.5285 31.4492 31.5285H34.812C35.0882 31.5285 35.312 31.3046 35.312 31.0285V27.6658Z" fill="white"/>
<path d="M32.9683 12.3344C32.9683 12.6106 33.1921 12.8344 33.4683 12.8344H34.812C35.0882 12.8344 35.312 12.6106 35.312 12.3344V8.97168C35.312 8.69554 35.0882 8.47168 34.812 8.47168H31.4492C31.1731 8.47168 30.9492 8.69554 30.9492 8.97168V10.3154C30.9492 10.5916 31.1731 10.8154 31.4492 10.8154H32.9683V12.3344Z" fill="white"/>
<path d="M12.5205 29.6846C12.5205 29.4084 12.7444 29.1846 13.0205 29.1846H26.979C27.2552 29.1846 27.479 29.4084 27.479 29.6846V31.0283C27.479 31.3045 27.2552 31.5283 26.979 31.5283H13.0205C12.7444 31.5283 12.5205 31.3045 12.5205 31.0283V29.6846Z" fill="white"/>
<path d="M16.9619 18.1262C16.9619 17.8501 17.1858 17.6262 17.4619 17.6262H22.5389C22.815 17.6262 23.0389 17.8501 23.0389 18.1262V19.47C23.0389 19.7461 22.815 19.97 22.5389 19.97H17.4619C17.1858 19.97 16.9619 19.7461 16.9619 19.47V18.1262Z" fill="white"/>
<path d="M9.47754 24.9897C9.47754 24.7136 9.7014 24.4897 9.97754 24.4897H30.0215C30.2977 24.4897 30.5215 24.7136 30.5215 24.9897V26.3335C30.5215 26.6096 30.2977 26.8335 30.0215 26.8335H9.97754C9.7014 26.8335 9.47754 26.6096 9.47754 26.3335V24.9897Z" fill="white"/>
</svg>
