<svg width="40" height="40" viewBox="0 0 40 40" fill="none" xmlns="http://www.w3.org/2000/svg">
<path d="M37.5594 27.3326C39.0661 24.5393 38.9947 21.2445 37.3682 18.5191C36.4401 16.964 35.108 15.7672 33.5459 15.0255C33.8534 12.1544 33.2297 9.22469 31.6829 6.63289C29.2042 2.47961 24.8367 0 20 0C15.1634 0 10.796 2.47953 8.31737 6.63281C6.77057 9.22461 6.1469 12.1544 6.4544 15.0255C4.89221 15.7671 3.5601 16.9639 2.63197 18.5191C1.00549 21.2445 0.934084 24.5393 2.4408 27.3326L8.00963 37.6562H2.66158C2.38544 37.6562 2.16158 37.8801 2.16158 38.1563V39.5C2.16158 39.7761 2.38544 40 2.66158 40H37.3387C37.6148 40 37.8387 39.7761 37.8387 39.5V38.1562C37.8387 37.8801 37.6148 37.6562 37.3387 37.6562H31.9906L37.5594 27.3326ZM4.64455 19.7202C5.22205 18.7526 6.0119 17.9733 6.93643 17.4247C7.20369 18.3263 7.56565 19.2107 8.02596 20.0641L13.7196 30.6191L10.298 36.962L4.50346 26.2199C3.39244 24.1599 3.4451 21.7302 4.64455 19.7202ZM10.3299 7.83398C12.3817 4.39617 15.9967 2.34375 20.0001 2.34375C24.0035 2.34375 27.6186 4.39617 29.6702 7.83398C31.7219 11.2718 31.812 15.4278 29.9113 18.9513L20.0001 37.3252L10.0888 18.9513C8.18815 15.4278 8.2783 11.2717 10.3299 7.83398ZM35.4966 26.2198L29.7021 36.962L26.2806 30.619L31.9742 20.064C32.4345 19.2106 32.7964 18.3263 33.0638 17.4246C33.9884 17.9733 34.7781 18.7525 35.3557 19.7202C36.555 21.7302 36.6078 24.1599 35.4966 26.2198ZM12.5867 37.6562L15.0512 33.0874L17.5156 37.6562H12.5867ZM22.4846 37.6562L24.9491 33.0875L27.4135 37.6562H22.4846Z" fill="#C84332"/>
<path d="M15.2153 15.775L14.8964 20.529C14.8717 20.8966 15.2395 21.1637 15.5814 21.0266L20 19.254L24.4184 21.0265C24.7603 21.1637 25.1281 20.8966 25.1034 20.529L24.7845 15.775L27.8338 12.1172C28.0696 11.8344 27.9292 11.4024 27.5722 11.3122L22.9573 10.1469L20.4234 6.11299C20.2273 5.80094 19.7726 5.80093 19.5766 6.11298L17.0425 10.1469L12.4277 11.3122C12.0707 11.4024 11.9303 11.8344 12.1661 12.1172L15.2153 15.775ZM21.4725 12.1894L24.1572 12.8672L22.3832 14.9953L22.5686 17.7592L20 16.7287L17.4313 17.7591L17.6167 14.9952L15.8427 12.8672L18.5274 12.1894L20 9.84506L21.4725 12.1894Z" fill="#C84332"/>
</svg>
