<svg width="21" height="21" viewBox="0 0 21 21" fill="none" xmlns="http://www.w3.org/2000/svg">
<path d="M15.2996 4.2333C13.9735 2.90722 12.1749 2.16223 10.2996 2.16223C8.42422 2.16223 6.62567 2.90722 5.29958 4.2333C3.9735 5.55938 3.22852 7.35794 3.22852 9.2333C3.22852 11.1087 3.9735 12.9072 5.29958 14.2333L9.69125 18.6333C9.76872 18.7114 9.86089 18.7734 9.96244 18.8157C10.064 18.858 10.1729 18.8798 10.2829 18.8798C10.3929 18.8798 10.5018 18.858 10.6034 18.8157C10.7049 18.7734 10.7971 18.7114 10.8746 18.6333L15.2996 14.1916C16.6201 12.8711 17.362 11.08 17.362 9.21247C17.362 7.34492 16.6201 5.55386 15.2996 4.2333V4.2333ZM14.1079 13L10.2996 16.825L6.49125 13C5.73887 12.2469 5.22665 11.2877 5.01933 10.2435C4.81201 9.19941 4.91891 8.11725 5.3265 7.13387C5.7341 6.15048 6.4241 5.31001 7.30928 4.7187C8.19445 4.12739 9.23507 3.81178 10.2996 3.81178C11.3641 3.81178 12.4047 4.12739 13.2899 4.7187C14.1751 5.31001 14.8651 6.15048 15.2727 7.13387C15.6803 8.11725 15.7872 9.19941 15.5798 10.2435C15.3725 11.2877 14.8603 12.2469 14.1079 13V13ZM7.79958 6.67497C7.12685 7.34978 6.74908 8.26377 6.74908 9.21663C6.74908 10.1695 7.12685 11.0835 7.79958 11.7583C8.29938 12.259 8.93591 12.6009 9.62929 12.7411C10.3227 12.8814 11.042 12.8138 11.6971 12.5468C12.3522 12.2797 12.9139 11.8252 13.3117 11.2402C13.7094 10.6551 13.9255 9.96569 13.9329 9.2583C13.9367 8.78597 13.8457 8.31768 13.6653 7.88112C13.485 7.44456 13.2189 7.0486 12.8829 6.71663C12.5526 6.37878 12.1588 6.10958 11.7241 5.92452C11.2894 5.73946 10.8224 5.6422 10.3499 5.63832C9.87747 5.63445 9.40892 5.72405 8.97123 5.90196C8.53354 6.07987 8.13535 6.34257 7.79958 6.67497V6.67497ZM11.7079 10.575C11.3921 10.8956 10.9748 11.0966 10.5272 11.1435C10.0796 11.1905 9.62964 11.0805 9.25417 10.8324C8.87871 10.5843 8.60108 10.2135 8.46876 9.78337C8.33643 9.35324 8.35762 8.8905 8.52871 8.47426C8.69981 8.05803 9.01017 7.71415 9.40674 7.50141C9.80331 7.28868 10.2615 7.22031 10.7029 7.30798C11.1443 7.39565 11.5415 7.63393 11.8267 7.98207C12.1118 8.33022 12.2672 8.76661 12.2662 9.21663C12.2541 9.73102 12.0383 10.2196 11.6662 10.575H11.7079Z" fill="white"/>
</svg>
