<svg width="170" height="65" viewBox="0 0 170 65" fill="none" xmlns="http://www.w3.org/2000/svg">
<path d="M164.18 13.8427C160.584 11.6016 157.04 10.4549 153.496 10.4549C151.619 10.4549 150.108 10.7676 148.961 11.341C147.815 11.9143 147.241 12.6961 147.241 13.5821C147.241 14.4681 147.867 15.2499 149.17 15.9275C150.421 16.605 152.453 17.2826 155.32 17.9601C159.698 19.0547 162.877 20.4098 164.91 22.1297C166.89 23.8497 167.881 26.0908 167.881 28.9053C167.881 30.6252 167.516 32.1888 166.838 33.596C166.161 35.0033 165.17 36.202 163.867 37.1923C162.564 38.1826 161.001 38.9644 159.177 39.4856C157.353 40.0589 155.32 40.3195 153.079 40.3195C151.567 40.3195 150.108 40.2152 148.596 40.0589C147.085 39.9025 145.626 39.6419 144.218 39.2771C142.811 38.9122 141.456 38.4953 140.205 37.9741C138.954 37.505 137.808 36.9317 136.817 36.2541L139.528 28.8531C141.56 30.0519 143.854 30.9379 146.303 31.5113C148.753 32.0846 151.046 32.3452 153.079 32.3452C154.747 32.3452 156.102 32.0846 157.196 31.5113C158.239 30.9379 158.76 30.2083 158.76 29.218C158.76 28.6447 158.551 28.1235 158.082 27.7065C157.613 27.2896 156.936 26.9247 156.154 26.612C155.372 26.2993 154.434 25.9866 153.444 25.726C152.401 25.4654 151.307 25.2048 150.212 24.9442C146.199 23.9539 143.176 22.5467 141.143 20.7746C139.059 19.0547 138.016 16.8656 138.016 14.2597C138.016 12.4876 138.381 10.8719 139.111 9.46465C139.788 8.05742 140.831 6.80655 142.134 5.81627C143.437 4.826 145.052 4.09632 146.981 3.57513C148.857 3.05393 150.994 2.79333 153.339 2.79333C156.102 2.79333 158.655 3.15817 160.949 3.88785C163.242 4.61752 165.379 5.65991 167.359 6.9629L164.18 13.8427Z" fill="white"/>
<path d="M126.207 14.4159L128.552 0.5H137.256L131.68 14.4159H126.207Z" fill="white"/>
<path d="M90.752 3.31445H99.6123V16.7613L111.548 3.31445H122.389L109.463 17.6474L123.118 39.1728H112.746L103.626 24.1102L99.6123 28.5404V39.7982H90.752V3.31445Z" fill="white"/>
<path d="M52.4961 21.6085C52.4961 18.8462 52.9652 16.3444 53.8512 14.0512C54.7372 11.7579 56.0402 9.77737 57.6559 8.10954C59.2716 6.44171 61.148 5.13872 63.3891 4.20057C65.6302 3.26241 68.0277 2.79333 70.6858 2.79333C74.0736 2.79333 77.0966 3.52301 79.7547 4.98236C82.4128 6.49383 84.5497 8.52649 86.1654 11.1846L79.4419 15.8754C78.4517 14.3639 77.1487 13.1651 75.6372 12.2791C74.1257 11.4452 72.4058 11.0282 70.5816 11.0282C69.2786 11.0282 68.132 11.2888 67.0375 11.81C65.943 12.3312 64.9527 13.0609 64.1709 13.9991C63.337 14.9372 62.7115 16.0317 62.2425 17.3347C61.7734 18.6377 61.5649 20.0449 61.5649 21.5564C61.5649 23.0679 61.8255 24.423 62.2946 25.726C62.7637 27.029 63.3891 28.1235 64.2751 29.0616C65.109 29.9998 66.0993 30.7295 67.246 31.2507C68.3926 31.824 69.6435 32.0846 70.9986 32.0846C72.8749 32.0846 74.5948 31.6155 76.2105 30.7295C77.7741 29.8434 79.0771 28.6447 80.1195 27.1332L86.7908 31.824C85.2272 34.4821 83.0903 36.5147 80.3801 38.0262C77.6178 39.5377 74.5427 40.3195 71.0507 40.3195C68.3926 40.3195 65.8908 39.8504 63.6497 38.9122C61.3564 37.9741 59.3759 36.6711 57.7602 35.0033C56.0924 33.3876 54.7894 31.407 53.9033 29.1137C52.9652 26.8205 52.4961 24.3187 52.4961 21.6085Z" fill="white"/>
<path d="M38.834 3.31445H47.6943V39.7982H38.834V3.31445Z" fill="white"/>
<path d="M0 3.31445H8.4955L24.1835 26.2471V3.31445H32.679V39.7982H24.1835L8.4955 16.7613V39.7982H0V3.31445Z" fill="white"/>
<path d="M161.489 58.5087C161.489 58.986 161.571 59.414 161.736 59.8255C161.884 60.237 162.114 60.5826 162.394 60.8789C162.674 61.1752 163.003 61.4056 163.382 61.5702C163.76 61.7513 164.188 61.8336 164.633 61.8336C165.703 61.8336 166.509 61.6031 167.069 61.1422V59.8749H164.534V57.768H169.801V61.8006C169.291 62.6236 168.583 63.2655 167.694 63.7264C166.805 64.2037 165.801 64.4342 164.682 64.4342C163.81 64.4342 163.003 64.286 162.263 63.9898C161.522 63.6935 160.88 63.282 160.337 62.7553C159.794 62.245 159.382 61.6196 159.086 60.8954C158.773 60.1711 158.625 59.3811 158.625 58.5252C158.625 57.6528 158.773 56.8627 159.069 56.1385C159.366 55.4143 159.777 54.7888 160.304 54.2621C160.831 53.7354 161.456 53.3239 162.18 53.0277C162.904 52.7314 163.695 52.5833 164.55 52.5833C165.67 52.5833 166.657 52.7972 167.53 53.2252C168.402 53.6696 169.077 54.2951 169.587 55.118L167.48 56.5994C167.151 56.1385 166.74 55.7929 166.229 55.546C165.719 55.2991 165.143 55.1839 164.501 55.1839C164.057 55.1839 163.662 55.2662 163.3 55.4308C162.921 55.5954 162.608 55.8258 162.345 56.1221C162.065 56.4183 161.868 56.764 161.719 57.1755C161.571 57.587 161.489 58.0314 161.489 58.5087Z" fill="white"/>
<path d="M146.788 52.7478H149.471L154.425 59.99V52.7478H157.108V64.2695H154.425L149.471 56.9944V64.2695H146.788V52.7478Z" fill="white"/>
<path d="M142.047 52.7478H144.845V64.2695H142.047V52.7478Z" fill="white"/>
<path d="M130.556 52.6654H136.284C136.81 52.6654 137.304 52.7312 137.749 52.8794C138.193 53.0275 138.588 53.225 138.917 53.4719C139.23 53.7353 139.493 54.048 139.674 54.3937C139.855 54.7558 139.938 55.1508 139.938 55.5623C139.938 56.0725 139.822 56.517 139.576 56.912C139.329 57.3235 138.999 57.6527 138.555 57.9325C139.246 58.1629 139.79 58.5415 140.201 59.0682C140.596 59.5949 140.794 60.2204 140.794 60.9281C140.794 61.4055 140.695 61.8499 140.514 62.2614C140.333 62.6728 140.069 63.035 139.74 63.3312C139.411 63.6275 139.016 63.8579 138.571 64.0225C138.111 64.1871 137.6 64.2694 137.057 64.2694H130.556V52.6654ZM136.547 61.9322C136.958 61.9322 137.304 61.8005 137.584 61.5371C137.847 61.2902 137.979 60.961 137.979 60.5496C137.979 60.171 137.831 59.8418 137.535 59.5949C137.222 59.348 136.827 59.2328 136.349 59.2328H133.288V61.9322H136.547ZM135.675 57.307C136.103 57.307 136.448 57.1918 136.728 56.9778C136.991 56.7638 137.123 56.484 137.123 56.1384C137.123 55.7927 136.991 55.5294 136.728 55.3154C136.448 55.1014 136.103 55.0027 135.691 55.0027H133.288V57.307H135.675Z" fill="white"/>
<path d="M115.06 52.7478H117.989L121.841 61.241L125.692 52.7478H128.606V64.2695H125.939V57.8009L123.059 64.2695H120.623L117.742 57.8009V64.2695H115.06V52.7478Z" fill="white"/>
<path d="M108.026 64.5C107.252 64.5 106.545 64.3847 105.919 64.1708C105.277 63.9568 104.734 63.6605 104.29 63.2655C103.845 62.8705 103.499 62.3931 103.253 61.8335C103.006 61.2739 102.874 60.6484 102.874 59.9571V52.7478H105.672V59.8584C105.672 60.4674 105.903 60.9447 106.347 61.3233C106.791 61.7018 107.351 61.8829 108.059 61.8829C108.75 61.8829 109.31 61.7018 109.754 61.3233C110.182 60.9447 110.396 60.4674 110.396 59.8584V52.7478H113.194V59.9571C113.194 60.632 113.079 61.2574 112.832 61.817C112.585 62.3767 112.223 62.854 111.779 63.249C111.318 63.6441 110.775 63.9568 110.149 64.1708C109.507 64.3847 108.799 64.5 108.026 64.5Z" fill="white"/>
<path d="M96.4632 52.7478V61.8335H101.763V64.2695H93.665V52.7478H96.4632Z" fill="white"/>
<path d="M82.6709 52.6654H88.2507C88.8268 52.6654 89.37 52.7642 89.8637 52.9617C90.3411 53.1592 90.769 53.439 91.1147 53.7847C91.4603 54.1468 91.7401 54.5747 91.9377 55.0685C92.1352 55.5623 92.2339 56.1055 92.2339 56.698C92.2339 57.2906 92.1352 57.8337 91.9377 58.3275C91.7401 58.8378 91.4603 59.2657 91.1147 59.6114C90.7526 59.9735 90.3246 60.2533 89.8473 60.4508C89.37 60.6648 88.8268 60.7635 88.2507 60.7635H85.4032V64.2694H82.6709V52.6654ZM87.7898 58.4098C88.2672 58.4098 88.6622 58.2452 88.9749 57.9325C89.2877 57.6197 89.4358 57.2083 89.4358 56.698C89.4358 56.1878 89.2877 55.7763 88.9749 55.4635C88.6622 55.1508 88.2672 55.0027 87.7898 55.0027H85.4032V58.4098H87.7898Z" fill="white"/>
<path d="M77.2094 52.7478L72.6337 60.7966V64.2695H69.8355V60.7307L65.2598 52.7478H68.4036L71.2511 58.0643L74.0327 52.7478H77.2094Z" fill="white"/>
<path d="M57.7566 55.2826H53.6582V52.7478H64.6697V55.2826H60.5548V64.2695H57.7566V55.2826Z" fill="white"/>
<path d="M49.5098 52.7478H52.3079V64.2695H49.5098V52.7478Z" fill="white"/>
<path d="M42.8245 52.7478V61.8335H48.1245V64.2695H40.0264V52.7478H42.8245Z" fill="white"/>
<path d="M35.0184 61.7347H30.2616L29.3563 64.2695H26.3936L30.7554 52.7478H34.5246L38.837 64.2695H35.9072L35.0184 61.7347ZM34.2448 59.4798L32.6317 54.9699L31.0352 59.4798H34.2448Z" fill="white"/>
<path d="M20.6138 64.5C19.8402 64.5 19.1324 64.3847 18.5069 64.1708C17.865 63.9568 17.3218 63.6605 16.8774 63.2655C16.433 62.8705 16.0874 62.3931 15.8405 61.8335C15.5936 61.2739 15.4619 60.6484 15.4619 59.9571V52.7478H18.26V59.8584C18.26 60.4674 18.4905 60.9447 18.9349 61.3233C19.3793 61.7018 19.9389 61.8829 20.6467 61.8829C21.338 61.8829 21.8976 61.7018 22.342 61.3233C22.77 60.9447 22.984 60.4674 22.984 59.8584V52.7478H25.7821V59.9571C25.7821 60.632 25.6669 61.2574 25.42 61.817C25.1731 62.3767 24.811 62.854 24.3666 63.249C23.9057 63.6441 23.3625 63.9568 22.7371 64.1708C22.0951 64.3847 21.3874 64.5 20.6138 64.5Z" fill="white"/>
<path d="M1.9209 58.4922C1.9209 57.6363 2.06904 56.8463 2.36531 56.122C2.64512 55.3978 3.05661 54.7724 3.58332 54.2457C4.11003 53.7189 4.73549 53.3075 5.45971 53.0112C6.16748 52.7149 6.95754 52.5668 7.81344 52.5668C8.66934 52.5668 9.4594 52.6984 10.1836 52.9618C10.9078 53.2416 11.5333 53.6037 12.06 54.0811C12.5867 54.5584 12.9982 55.118 13.2945 55.7599C13.5743 56.4183 13.7224 57.1425 13.7224 57.9161C13.7224 58.8543 13.5414 59.6609 13.1793 60.3357C12.8007 61.0106 12.2905 61.5208 11.6321 61.85H14.315V64.2696H7.7476C6.8917 64.2531 6.10164 64.105 5.39388 63.8251C4.68611 63.5453 4.06065 63.1503 3.5504 62.6401C3.04015 62.1298 2.62866 61.5208 2.34885 60.813C2.06904 60.1053 1.9209 59.3317 1.9209 58.4922ZM4.78487 58.4922C4.78487 58.9696 4.86717 59.3975 5.0153 59.7761C5.16344 60.1711 5.37742 60.5003 5.65723 60.7801C5.93704 61.0599 6.26624 61.2739 6.64481 61.422C7.02338 61.5702 7.43487 61.6525 7.87928 61.6525C8.32369 61.6525 8.71872 61.5702 9.09729 61.422C9.47586 61.2739 9.78859 61.0764 10.0684 60.7966C10.3318 60.5168 10.5457 60.1876 10.6939 59.7925C10.842 59.414 10.9078 58.9696 10.9078 58.4922C10.9078 58.0149 10.8255 57.5705 10.6774 57.159C10.5293 56.7475 10.3153 56.4019 10.0519 56.1056C9.77213 55.8093 9.4594 55.5789 9.08083 55.4143C8.70226 55.2497 8.30723 55.1674 7.86282 55.1674C7.41841 55.1674 7.02338 55.2497 6.64481 55.4143C6.26624 55.5789 5.93704 55.8093 5.65723 56.1056C5.37742 56.4019 5.16344 56.7475 5.0153 57.159C4.86717 57.5705 4.78487 58.0149 4.78487 58.4922Z" fill="white"/>
</svg>
