<svg width="41" height="40" viewBox="0 0 41 40" fill="none" xmlns="http://www.w3.org/2000/svg">
<g clip-path="url(#clip0_20_522)">
<path d="M36.0405 3.47998H33.1422C32.8661 3.47998 32.6422 3.70384 32.6422 3.97998V5.82131H8.02371V3.97998C8.02371 3.70384 7.79985 3.47998 7.52371 3.47998H4.62551C2.25863 3.47998 0.333008 5.40553 0.333008 7.77248V32.5688C0.333008 34.7476 2.10559 36.5202 4.28441 36.5202H36.3817C38.5604 36.5202 40.333 34.7476 40.333 32.5688V7.77248C40.333 5.40553 38.4074 3.47998 36.0405 3.47998ZM2.67434 7.77248C2.67434 6.69662 3.54957 5.82139 4.62543 5.82139H5.6823V28.6175H4.28441C3.71137 28.6175 3.16637 28.7401 2.67441 28.9605L2.67434 7.77248ZM36.3817 34.1788H4.28441C3.39668 34.1788 2.67441 33.4565 2.67441 32.5688C2.67441 31.6811 3.39668 30.9588 4.28441 30.9588H7.52379C7.79993 30.9588 8.02379 30.735 8.02379 30.4588V8.16271H32.6423V30.4588C32.6423 30.735 32.8662 30.9588 33.1423 30.9588H36.3817C37.2694 30.9588 37.9917 31.6811 37.9917 32.5688C37.9917 33.4565 37.2694 34.1788 36.3817 34.1788ZM37.9917 28.9604C37.4997 28.74 36.9546 28.6173 36.3817 28.6173H34.9836V5.82131H36.0405C37.1164 5.82131 37.9916 6.69654 37.9916 7.7724L37.9917 28.9604Z" fill="#CF4D3D"/>
<path d="M26.5655 16.5047C26.5655 16.3603 26.5031 16.2229 26.3942 16.1279L25.0192 14.9285V11.241C25.0192 10.9648 24.7954 10.741 24.5192 10.741H23.1779C22.9017 10.741 22.6779 10.9648 22.6779 11.241V12.8864L20.6417 11.1103C20.4534 10.946 20.1727 10.946 19.9844 11.1103L14.2319 16.1279C14.123 16.2229 14.0605 16.3603 14.0605 16.5047V23.2337C14.0605 23.5098 14.2844 23.7337 14.5605 23.7337H26.0656C26.3418 23.7337 26.5656 23.5098 26.5656 23.2337L26.5655 16.5047ZM24.2242 21.3924H21.4837V19.498C21.4837 19.2219 21.2599 18.998 20.9837 18.998H19.6424C19.3663 18.998 19.1424 19.2219 19.1424 19.498V21.3924H16.402V17.3421L20.3131 13.9305L24.2243 17.3421L24.2242 21.3924Z" fill="#CF4D3D"/>
<path d="M29.1518 27.1433C29.1509 26.8678 28.9273 26.645 28.6518 26.645H27.3088C27.0326 26.645 26.8088 26.8689 26.8088 27.145V28.5867H24.0816V27.145C24.0816 26.8689 23.8578 26.645 23.5816 26.645H22.2403C21.9642 26.645 21.7403 26.8689 21.7403 27.145V28.5867H19.0133V27.145C19.0133 26.8689 18.7894 26.645 18.5133 26.645H17.172C16.8958 26.645 16.672 26.8689 16.672 27.145V28.5867H13.9449V27.145C13.9449 26.8689 13.7211 26.645 13.4449 26.645H12.1075C11.8298 26.645 11.6053 26.8713 11.6075 27.149L11.6333 30.4319C11.6354 30.7065 11.8587 30.928 12.1333 30.928H28.6634C28.9402 30.928 29.1644 30.7031 29.1634 30.4262L29.1518 27.1433Z" fill="#CF4D3D"/>
</g>
<defs>
<clipPath id="clip0_20_522">
<rect width="40" height="40" fill="white" transform="translate(0.333008)"/>
</clipPath>
</defs>
</svg>
