<svg width="24" height="25" viewBox="0 0 24 25" fill="none" xmlns="http://www.w3.org/2000/svg">
<path d="M19.4396 13.5C19.2196 13.5 18.9896 13.43 18.7696 13.38C18.3241 13.2818 17.8863 13.1515 17.4596 12.99C16.9957 12.8212 16.4858 12.83 16.0279 13.0146C15.5701 13.1992 15.1967 13.5466 14.9796 13.99L14.7596 14.44C13.7856 13.8982 12.8906 13.2252 12.0996 12.44C11.3144 11.649 10.6414 10.754 10.0996 9.77999L10.5196 9.49999C10.963 9.28291 11.3104 8.90952 11.495 8.45168C11.6796 7.99384 11.6884 7.4839 11.5196 7.01999C11.3608 6.59241 11.2305 6.15479 11.1296 5.70999C11.0796 5.48999 11.0396 5.25999 11.0096 5.02999C10.8882 4.32561 10.5192 3.68773 9.96923 3.23123C9.41923 2.77473 8.72431 2.5296 8.00961 2.53999H5.00961C4.57864 2.53594 4.15186 2.6248 3.75832 2.80052C3.36478 2.97624 3.01372 3.23469 2.72904 3.55827C2.44436 3.88186 2.23275 4.26298 2.1086 4.6757C1.98445 5.08842 1.95069 5.52305 2.00961 5.94999C2.54235 10.1394 4.45564 14.0319 7.44726 17.0126C10.4389 19.9934 14.3383 21.8925 18.5296 22.41H18.9096C19.647 22.4111 20.359 22.1405 20.9096 21.65C21.226 21.367 21.4787 21.0202 21.6511 20.6323C21.8235 20.2444 21.9116 19.8244 21.9096 19.4V16.4C21.8974 15.7054 21.6444 15.0365 21.194 14.5077C20.7435 13.9788 20.1234 13.6226 19.4396 13.5ZM19.9396 19.5C19.9394 19.642 19.909 19.7823 19.8504 19.9116C19.7918 20.0409 19.7063 20.1563 19.5996 20.25C19.4882 20.347 19.3576 20.4194 19.2163 20.4625C19.075 20.5056 18.9262 20.5183 18.7796 20.5C15.0345 20.0198 11.5558 18.3065 8.89233 15.6303C6.22881 12.9541 4.53202 9.46733 4.06961 5.71999C4.0537 5.57351 4.06765 5.42532 4.11061 5.28438C4.15358 5.14344 4.22468 5.01268 4.31961 4.89999C4.41332 4.79332 4.52867 4.70783 4.65799 4.64921C4.78731 4.59058 4.92763 4.56017 5.06961 4.55999H8.06961C8.30216 4.55482 8.52924 4.63087 8.71176 4.77506C8.89428 4.91925 9.02082 5.12256 9.06961 5.34999C9.10961 5.62332 9.15961 5.89332 9.21961 6.15999C9.33513 6.68713 9.48887 7.20517 9.67961 7.70999L8.27961 8.35999C8.15991 8.41491 8.05223 8.49294 7.96277 8.58959C7.87331 8.68623 7.80381 8.7996 7.75828 8.92318C7.71275 9.04677 7.69208 9.17812 7.69746 9.30971C7.70284 9.4413 7.73415 9.57054 7.78961 9.68999C9.22881 12.7727 11.7069 15.2508 14.7896 16.69C15.0331 16.79 15.3062 16.79 15.5496 16.69C15.6743 16.6454 15.7889 16.5764 15.8868 16.4872C15.9846 16.3979 16.0638 16.2901 16.1196 16.17L16.7396 14.77C17.2566 14.9549 17.7842 15.1085 18.3196 15.23C18.5863 15.29 18.8563 15.34 19.1296 15.38C19.357 15.4288 19.5604 15.5553 19.7045 15.7378C19.8487 15.9204 19.9248 16.1474 19.9196 16.38L19.9396 19.5Z" fill="white"/>
</svg>
