<svg width="41" height="40" viewBox="0 0 41 40" fill="none" xmlns="http://www.w3.org/2000/svg">
<g clip-path="url(#clip0_20_619)">
<path d="M39.3281 2.51039H25.4375V1.17188C25.4375 0.524687 24.9128 0 24.2656 0H19.2448C18.5976 0 18.0729 0.524687 18.0729 1.17188V2.55305C10.0534 3.12789 3.62789 9.55336 3.05305 17.5729H1.67188C1.02469 17.5729 0.5 18.0976 0.5 18.7448V23.7656C0.5 24.4128 1.02469 24.9375 1.67188 24.9375H3.01039V38.8281C3.01039 39.4753 3.53508 40 4.18227 40H11.7135C12.3607 40 12.8854 39.4753 12.8854 38.8281V24.9375H14.2239C14.8711 24.9375 15.3958 24.4128 15.3958 23.7656V18.7448C15.3958 18.0976 14.8711 17.5729 14.2239 17.5729H12.9937C13.3102 15.8633 14.7473 13.1096 18.0729 12.4938V13.7239C18.0729 14.3711 18.5976 14.8958 19.2448 14.8958H24.2656C24.9128 14.8958 25.4375 14.3711 25.4375 13.7239V12.3854H39.3281C39.9753 12.3854 40.5 11.8607 40.5 11.2135V3.68227C40.5 3.03508 39.9753 2.51039 39.3281 2.51039ZM10.5416 37.6562H5.35414V24.9375H10.5416V37.6562ZM13.0521 19.9166V22.5938H2.84375V19.9166H13.0521ZM18.0729 10.1192C14.8212 10.5538 11.2122 13.1363 10.6193 17.5729H5.40312C5.96758 10.8461 11.3461 5.46758 18.0729 4.90312V10.1192ZM23.0938 12.5521H20.4166V2.34375H23.0938V12.5521ZM38.1562 10.0416H25.4375V4.85414H38.1562V10.0416Z" fill="#CD4937"/>
</g>
<defs>
<clipPath id="clip0_20_619">
<rect width="40" height="40" fill="white" transform="translate(0.5)"/>
</clipPath>
</defs>
</svg>
