<svg width="40" height="40" viewBox="0 0 40 40" fill="none" xmlns="http://www.w3.org/2000/svg">
<g clip-path="url(#clip0_26_123)">
<path d="M30.625 0.5C30.625 0.223858 30.4011 0 30.125 0H9.95312C9.67698 0 9.45312 0.223858 9.45312 0.5V9.375H0.5C0.223858 9.375 0 9.59886 0 9.875V39.5C0 39.7761 0.223858 40 0.5 40H39.5C39.7761 40 40 39.7761 40 39.5V9.875C40 9.59886 39.7761 9.375 39.5 9.375H30.625V0.5ZM11.7969 2.34375H28.2812V9.375H25.9375V5.1875C25.9375 4.91136 25.7136 4.6875 25.4375 4.6875H14.6406C14.3645 4.6875 14.1406 4.91136 14.1406 5.1875V9.375H11.7969V2.34375ZM23.5938 7.03125V9.375H16.4844V7.03125H23.5938ZM2.34375 11.7188H6.98992C6.51539 14.0163 4.67414 15.8288 2.34375 16.2911V11.7188ZM2.34375 37.6562V33.0839C4.67414 33.5462 6.51539 35.3587 6.98992 37.6562H2.34375ZM37.6562 37.6562H33.0866C33.5538 35.3638 35.3638 33.5539 37.6562 33.0866V37.6562ZM37.6562 11.7188V16.2884C35.3638 15.8212 33.5539 14.0112 33.0866 11.7188H37.6562ZM30.7091 11.7188C31.2245 15.3059 34.0691 18.1505 37.6562 18.6659V30.7091C34.0691 31.2245 31.2245 34.0691 30.7091 37.6562H9.36828C8.84742 34.0654 5.97031 31.2187 2.34375 30.7075V18.6675C5.97031 18.1563 8.84742 15.3096 9.36828 11.7188H30.7091Z" fill="white"/>
<path d="M20 28.2031C19.3538 28.2031 18.8281 27.6774 18.8281 27.0312H16.4844C16.4844 28.559 17.4641 29.8616 18.8281 30.3453V32.4688C18.8281 32.7449 19.052 32.9688 19.3281 32.9688H20.6719C20.948 32.9688 21.1719 32.7449 21.1719 32.4688V30.3453C22.5359 29.8616 23.5156 28.559 23.5156 27.0312C23.5156 25.0927 21.9385 23.5156 20 23.5156C19.3538 23.5156 18.8281 22.9899 18.8281 22.3438C18.8281 21.6976 19.3538 21.1719 20 21.1719C20.6462 21.1719 21.1719 21.6976 21.1719 22.3438H23.5156C23.5156 20.816 22.5359 19.5134 21.1719 19.0297V16.9063C21.1719 16.6301 20.948 16.4062 20.6719 16.4062H19.3281C19.052 16.4062 18.8281 16.6301 18.8281 16.9062V19.0297C17.4641 19.5134 16.4844 20.816 16.4844 22.3438C16.4844 24.2823 18.0615 25.8594 20 25.8594C20.6462 25.8594 21.1719 26.3851 21.1719 27.0312C21.1719 27.6774 20.6462 28.2031 20 28.2031Z" fill="white"/>
<path d="M32.4688 23.5156H28.7812C28.5051 23.5156 28.2812 23.7395 28.2812 24.0156V25.3594C28.2812 25.6355 28.5051 25.8594 28.7813 25.8594H32.4688C32.7449 25.8594 32.9688 25.6355 32.9688 25.3594V24.0156C32.9688 23.7395 32.7449 23.5156 32.4688 23.5156Z" fill="white"/>
<path d="M11.2969 23.5156H7.60938C7.33323 23.5156 7.10938 23.7395 7.10938 24.0156V25.3594C7.10938 25.6355 7.33323 25.8594 7.60938 25.8594H11.2969C11.573 25.8594 11.7969 25.6355 11.7969 25.3594V24.0156C11.7969 23.7395 11.573 23.5156 11.2969 23.5156Z" fill="white"/>
</g>
<defs>
<clipPath id="clip0_26_123">
<rect width="40" height="40" fill="white"/>
</clipPath>
</defs>
</svg>
