<svg width="40" height="40" viewBox="0 0 40 40" fill="none" xmlns="http://www.w3.org/2000/svg">
<path d="M15.8211 29.0532L15.0059 33.8059C14.9359 34.2143 15.3646 34.5258 15.7314 34.333L19.9996 32.0891L24.2678 34.333C24.6346 34.5258 25.0633 34.2143 24.9933 33.8059L24.1781 29.0532L27.6311 25.6873C27.9279 25.3981 27.7641 24.8941 27.354 24.8345L22.582 24.1411L20.448 19.8169C20.2646 19.4453 19.7346 19.4453 19.5512 19.8169L17.4171 24.1411L12.6452 24.8345C12.2351 24.8941 12.0713 25.3981 12.3681 25.6873L15.8211 29.0532ZM18.9735 26.2833L19.9996 24.2042L21.0257 26.2833L23.32 26.6166L21.6598 28.2349L22.0518 30.52L19.9996 29.4412L17.9474 30.52L18.3394 28.2349L16.6792 26.6166L18.9735 26.2833Z" fill="white"/>
<path d="M7.10938 27.1094C7.10938 34.2173 12.8921 40 20 40C27.1079 40 32.8906 34.2173 32.8906 27.1094C32.8906 23.115 31.0644 19.5393 28.2031 17.173V2.34375H30.0469C30.323 2.34375 30.5469 2.11989 30.5469 1.84375V0.5C30.5469 0.223858 30.323 0 30.0469 0H9.95312C9.67698 0 9.45312 0.223858 9.45312 0.5V1.84375C9.45312 2.11989 9.67698 2.34375 9.95312 2.34375H11.7969V17.173C8.93563 19.5393 7.10938 23.115 7.10938 27.1094ZM21.1719 2.34375H25.8594V15.6291C24.43 14.8966 22.8465 14.4242 21.1719 14.2726V2.34375ZM14.1406 2.34375H18.8281V14.2726C17.1535 14.4242 15.57 14.8966 14.1406 15.6291V2.34375ZM20 16.5625C25.8155 16.5625 30.5469 21.2938 30.5469 27.1094C30.5469 32.9249 25.8155 37.6562 20 37.6562C14.1845 37.6562 9.45312 32.9249 9.45312 27.1094C9.45312 21.2938 14.1845 16.5625 20 16.5625Z" fill="white"/>
</svg>
