<svg width="64" height="64" viewBox="0 0 64 64" fill="none" xmlns="http://www.w3.org/2000/svg">
<g clip-path="url(#clip0_20_541)">
<path d="M25.313 12.8921L24.9317 17.7275C24.8805 18.378 25.171 19.0083 25.6988 19.3918C26.2268 19.7752 26.916 19.8568 27.5187 19.607L31.9996 17.7501L36.4806 19.6069C37.0803 19.8557 37.7713 19.7762 38.3005 19.3916C38.8283 19.0081 39.1188 18.3778 39.0676 17.7274L38.6863 12.892L41.837 9.20413C42.2608 8.70813 42.3962 8.02738 42.1946 7.40688C41.993 6.78638 41.4833 6.31525 40.8488 6.163L36.1323 5.03137L33.5986 0.895375C33.2576 0.339125 32.6521 0 31.9996 0C31.3471 0 30.7416 0.339125 30.4007 0.8955L27.867 5.0315L23.1505 6.16313C22.516 6.31537 22.0063 6.78638 21.8047 7.407C21.6031 8.0275 21.7385 8.70825 22.1623 9.20425L25.313 12.8921ZM29.4973 8.49662C29.9811 8.38062 30.3988 8.077 30.6587 7.65287L31.9996 5.46425L33.3405 7.65287C33.6003 8.077 34.0181 8.38062 34.5018 8.49662L36.9976 9.0955L35.3305 11.047C35.0073 11.4253 34.8477 11.9164 34.8868 12.4122L35.0886 14.9709L32.7175 13.9884C32.2578 13.798 31.7415 13.798 31.282 13.9884L28.9108 14.9709L29.1126 12.4122C29.1517 11.9162 28.9921 11.4253 28.669 11.047L27.0018 9.0955L29.4973 8.49662Z" fill="#CF4D3D"/>
<path d="M63.9072 14.782C63.7056 14.1615 63.196 13.6904 62.5615 13.5381L57.845 12.4065L55.3112 8.2705C54.9703 7.71413 54.3648 7.375 53.7125 7.375C53.0601 7.375 52.4545 7.71413 52.1136 8.2705L49.5798 12.4065L44.8633 13.5381C44.2288 13.6904 43.7192 14.1614 43.5176 14.782C43.316 15.4025 43.4513 16.0832 43.8752 16.5792L47.0258 20.2671L46.6446 25.1025C46.5933 25.753 46.8838 26.3833 47.4117 26.7668C47.9397 27.1502 48.6288 27.2319 49.2316 26.982L53.7126 25.1253L58.1935 26.982C58.7932 27.2309 59.4842 27.1514 60.0133 26.7668C60.5412 26.3833 60.8317 25.753 60.7805 25.1025L60.3992 20.2671L63.5498 16.5792C63.9735 16.0832 64.109 15.4025 63.9072 14.782ZM57.0432 18.422C56.7201 18.8001 56.5605 19.2914 56.5996 19.7872L56.8013 22.346L54.4302 21.3635C53.9707 21.1731 53.4542 21.1731 52.9947 21.3635L50.6235 22.346L50.8252 19.7874C50.8643 19.2914 50.7047 18.8003 50.3816 18.422L48.7143 16.4705L51.2102 15.8717C51.694 15.7557 52.1117 15.4521 52.3716 15.028L53.7125 12.8394L55.0532 15.028C55.3131 15.4522 55.7308 15.7557 56.2146 15.8717L58.7105 16.4706L57.0432 18.422Z" fill="#CF4D3D"/>
<path d="M16.5874 26.7665C17.1153 26.383 17.4058 25.7526 17.3546 25.1023L16.9733 20.2669L20.1239 16.579C20.5478 16.083 20.6832 15.4023 20.4816 14.7818C20.2799 14.1613 19.7703 13.6901 19.1358 13.5379L14.4193 12.4063L11.8856 8.27026C11.5447 7.71388 10.9392 7.37476 10.2867 7.37476C9.63419 7.37476 9.02869 7.71388 8.68782 8.27026L6.15407 12.4063L1.43757 13.5379C0.803065 13.6901 0.29344 14.1611 0.0918154 14.7818C-0.10981 15.4023 0.0255654 16.083 0.44944 16.579L3.60007 20.2669L3.21882 25.1023C3.16757 25.7528 3.45807 26.383 3.98594 26.7665C4.51507 27.1511 5.20607 27.2306 5.80582 26.9818L10.2867 25.125L14.7677 26.9818C15.3703 27.2315 16.0597 27.1501 16.5874 26.7665ZM13.1738 19.7871L13.3756 22.3458L11.0043 21.3633C10.5447 21.1729 10.0283 21.1729 9.56882 21.3633L7.19769 22.3458L7.39944 19.787C7.43857 19.2911 7.27894 18.8 6.95582 18.4218L5.28869 16.4704L7.78457 15.8715C8.26832 15.7555 8.68607 15.4519 8.94594 15.0278L10.2867 12.8391L11.6276 15.0278C11.8874 15.4519 12.3052 15.7555 12.7889 15.8715L15.2848 16.4703L13.6176 18.4218C13.2943 18.8 13.1347 19.2911 13.1738 19.7871Z" fill="#CF4D3D"/>
<path d="M53.3745 40.9221C52.1478 39.4621 50.3506 38.6247 48.4438 38.6247H41.4618L42.683 34.8227C42.9174 34.1077 43.0364 33.3657 43.0364 32.6172C43.0364 29.5423 41.0714 26.8353 38.148 25.8813C35.9678 25.1681 33.6136 26.3616 32.8983 28.5486L30.0526 37.3617C29.7089 38.4152 28.8801 39.2678 27.8365 39.6421L24.625 40.7926V39.6247C24.625 38.5892 23.7855 37.7497 22.75 37.7497H13.25C12.2145 37.7497 11.375 38.5892 11.375 39.6247V62.1247C11.375 63.1602 12.2145 63.9997 13.25 63.9997H22.75C23.7855 63.9997 24.625 63.1602 24.625 62.1247V60.3639C25.5875 60.4443 26.4818 60.8569 27.1715 61.5464C28.6154 63.0059 30.663 63.8536 32.7188 63.8447H45.18C48.958 63.8447 52.1724 61.1433 52.8233 57.4209L54.7869 46.1729C55.1155 44.2954 54.6008 42.3816 53.3745 40.9221ZM20.875 60.2497H15.125V41.4997H20.875V60.2497ZM51.093 45.5272L49.1294 56.7754C48.7931 58.6987 47.1321 60.0947 45.1801 60.0947H32.7189C31.6451 60.0988 30.579 59.6583 29.8248 58.8963C28.425 57.4967 26.5898 56.6921 24.625 56.6069V44.7759L29.1016 43.1722C31.2286 42.4093 32.9168 40.6722 33.6193 38.5196L36.4645 29.7076C36.5348 29.4928 36.7668 29.3753 36.9833 29.4459C38.7203 29.9872 39.7089 31.9439 39.116 33.6651L37.1048 39.9263C36.6959 41.0896 37.6575 42.4082 38.8899 42.3747H48.4436C50.0654 42.3352 51.4116 43.9361 51.093 45.5272Z" fill="#CF4D3D"/>
</g>
<defs>
<clipPath id="clip0_20_541">
<rect width="64" height="64" fill="white"/>
</clipPath>
</defs>
</svg>
