<svg width="41" height="40" viewBox="0 0 41 40" fill="none" xmlns="http://www.w3.org/2000/svg">
<g clip-path="url(#clip0_20_532)">
<path d="M1.16699 0C0.890849 0 0.666992 0.223858 0.666992 0.5V12.0329C0.666992 12.309 0.89085 12.5329 1.16699 12.5329H7.19824C7.47438 12.5329 7.69824 12.309 7.69824 12.0329V10.5216L9.20941 10.5228L16.4643 17.2793C17.3602 18.1193 18.5033 18.5527 19.6601 18.5527C20.4654 18.5527 21.2771 18.3427 22.0166 17.9136L29.5092 13.5662C30.4225 13.0362 31.0611 12.1375 31.2609 11.1005C31.2933 10.9325 31.3124 10.7636 31.321 10.5948H33.6357V12.0328C33.6357 12.309 33.8596 12.5328 34.1357 12.5328H40.167C40.4431 12.5328 40.667 12.309 40.667 12.0328V0.5C40.667 0.223858 40.4431 0 40.167 0H1.16699ZM5.35449 10.1891H3.01074V2.34375H5.35449V10.1891ZM28.9596 10.6571C28.887 11.0335 28.6646 11.3467 28.3329 11.5391L20.8404 15.8864C19.9405 16.4086 18.8263 16.2812 18.0646 15.567L10.2764 8.31378C10.184 8.2277 10.0624 8.17979 9.93609 8.17968L7.69824 8.17781V2.34375H20.8479L17.1024 5.64305L17.0472 5.69492C16.3917 6.35227 16.0332 7.22547 16.0377 8.15375C16.0422 9.08203 16.4092 9.95172 17.071 10.6027C17.7465 11.2672 18.6192 11.6027 19.4946 11.6027C20.2849 11.6027 21.0775 11.3293 21.7294 10.7774L23.2915 9.53039H25.1596C26.1968 9.53039 27.1561 9.19172 27.934 8.62008L28.7056 9.60555C28.9419 9.90734 29.0321 10.2808 28.9596 10.6571ZM30.6181 8.25125C30.5959 8.22101 30.5743 8.19039 30.5511 8.1607L29.4459 6.74922C29.7084 6.16398 29.8557 5.51625 29.8557 4.83445V4.83445C29.8557 4.57056 29.6417 4.35664 29.3779 4.35664H27.9897C27.7258 4.35664 27.5119 4.57056 27.5119 4.83445V4.83445C27.5119 6.13148 26.4567 7.18672 25.1597 7.18672H22.6459C22.5326 7.18672 22.4226 7.22524 22.334 7.29596L20.2529 8.95734L20.2214 8.98344C19.7785 9.36305 19.1305 9.34117 18.7145 8.9318C18.5012 8.72195 18.3829 8.44172 18.3814 8.1425C18.38 7.85375 18.4875 7.58156 18.685 7.3725L24.3936 2.34375H33.6357V8.25125H30.6181ZM38.3232 10.1891H35.9795V2.34375H38.3232V10.1891Z" fill="#C84332"/>
<path d="M34.391 27.7988C34.391 27.5226 34.1671 27.2988 33.891 27.2988H28.1149V22.6201C28.1149 22.344 27.891 22.1201 27.6149 22.1201H13.7191C13.443 22.1201 13.2191 22.344 13.2191 22.6201V27.2988H7.44301C7.16687 27.2988 6.94301 27.5226 6.94301 27.7988V32.4775H1.16699C0.89085 32.4775 0.666992 32.7013 0.666992 32.9775V39.4999C0.666992 39.776 0.89085 39.9999 1.16699 39.9999H40.167C40.4431 39.9999 40.667 39.776 40.667 39.4999V32.9775C40.667 32.7013 40.4431 32.4775 40.167 32.4775H34.391V27.7988ZM32.0472 29.6425V32.4775H21.8389V29.6425H32.0472ZM15.5629 24.4639H25.7711V27.2988H15.5629V24.4639ZM9.28676 29.6425H19.4951V32.4775H9.28676V29.6425ZM13.2191 37.6561H3.01074V34.8212H13.2191V37.6561ZM25.7711 37.6561H15.5629V34.8212H25.7711V37.6561ZM38.3232 34.8212V37.6561H28.1149V34.8212H38.3232Z" fill="#C84332"/>
</g>
<defs>
<clipPath id="clip0_20_532">
<rect width="40" height="40" fill="white" transform="translate(0.666992)"/>
</clipPath>
</defs>
</svg>
