<svg width="20" height="21" viewBox="0 0 20 21" fill="none" xmlns="http://www.w3.org/2000/svg">
<path d="M14.9333 6.01667C14.8487 5.81304 14.6869 5.65123 14.4833 5.56667C14.3831 5.52397 14.2755 5.50132 14.1666 5.5H5.83328C5.61227 5.5 5.40031 5.5878 5.24403 5.74408C5.08775 5.90036 4.99995 6.11232 4.99995 6.33333C4.99995 6.55435 5.08775 6.76631 5.24403 6.92259C5.40031 7.07887 5.61227 7.16667 5.83328 7.16667H12.1583L5.24162 14.075C5.16351 14.1525 5.10151 14.2446 5.05921 14.3462C5.0169 14.4477 4.99512 14.5567 4.99512 14.6667C4.99512 14.7767 5.0169 14.8856 5.05921 14.9871C5.10151 15.0887 5.16351 15.1809 5.24162 15.2583C5.31908 15.3364 5.41125 15.3984 5.5128 15.4407C5.61435 15.4831 5.72327 15.5048 5.83328 15.5048C5.94329 15.5048 6.05221 15.4831 6.15376 15.4407C6.25531 15.3984 6.34748 15.3364 6.42495 15.2583L13.3333 8.34167V14.6667C13.3333 14.8877 13.4211 15.0996 13.5774 15.2559C13.7336 15.4122 13.9456 15.5 14.1666 15.5C14.3876 15.5 14.5996 15.4122 14.7559 15.2559C14.9122 15.0996 14.9999 14.8877 14.9999 14.6667V6.33333C14.9986 6.22444 14.976 6.11685 14.9333 6.01667V6.01667Z" fill="#CF4D3D"/>
</svg>
