<svg width="41" height="40" viewBox="0 0 41 40" fill="none" xmlns="http://www.w3.org/2000/svg">
<g clip-path="url(#clip0_20_595)">
<path d="M7.30371 0C7.02757 0 6.80371 0.223858 6.80371 0.5V33.3714C6.80371 33.5574 6.90701 33.7281 7.07184 33.8143L12.8036 36.8145C12.8752 36.8519 12.9547 36.8715 13.0355 36.8715H15.1564V39.5C15.1564 39.7761 15.3802 40 15.6564 40H17.0002C17.2763 40 17.5002 39.7761 17.5002 39.5V36.8715H23.501V39.5C23.501 39.7761 23.7249 40 24.001 40H25.3448C25.621 40 25.8448 39.7761 25.8448 39.5V36.8715H28.0887L33.9294 33.8143C34.0942 33.7281 34.1975 33.5574 34.1975 33.3714V0.500001C34.1975 0.223859 33.9736 0 33.6975 0H7.30371ZM31.8535 32.2553L27.5122 34.5277H13.4889L9.14753 32.2553V28.6667H31.8536L31.8535 32.2553ZM31.8535 26.323H9.14753V2.34382H31.8536L31.8535 26.323Z" fill="#C84332"/>
<path d="M21.1867 5.71294L20.7936 5.42923C20.6189 5.30313 20.3831 5.30313 20.2083 5.42923L19.8153 5.71294C19.6996 5.7963 16.9834 7.78903 16.9834 10.617C16.9834 12.5566 18.5614 14.1345 20.501 14.1345C22.4406 14.1345 24.0185 12.5566 24.0185 10.617C24.0185 7.78895 21.3023 5.7963 21.1867 5.71294ZM20.501 11.7907C19.8538 11.7907 19.3272 11.2643 19.3272 10.6171C19.3272 9.8152 19.8 9.06739 20.1966 8.58114V8.58114C20.3532 8.38925 20.6488 8.38919 20.8053 8.58114V8.58114C21.202 9.06731 21.6747 9.81512 21.6747 10.6171C21.6747 11.2642 21.1482 11.7907 20.501 11.7907Z" fill="#C84332"/>
<path d="M24.1729 21.6318H16.8281C16.552 21.6318 16.3281 21.8557 16.3281 22.1318V23.4757C16.3281 23.7518 16.552 23.9757 16.8281 23.9757H24.1729C24.449 23.9757 24.6729 23.7518 24.6729 23.4757V22.1318C24.6729 21.8557 24.449 21.6318 24.1729 21.6318Z" fill="#C84332"/>
</g>
<defs>
<clipPath id="clip0_20_595">
<rect width="40" height="40" fill="white" transform="translate(0.5)"/>
</clipPath>
</defs>
</svg>
